<svg id="mermaid-1645473235446" width="719.43310546875" xmlns="http://www.w3.org/2000/svg" xmlns:xlink="http://www.w3.org/1999/xlink" height="191.27706909179688" viewBox="0 0 719.43310546875 191.27706909179688" style="background-color: rgb(36, 31, 49);"><style>#mermaid-1645473235446 {font-family:"trebuchet ms",verdana,arial,sans-serif;font-size:16px;fill:#333;}#mermaid-1645473235446 .error-icon{fill:#552222;}#mermaid-1645473235446 .error-text{fill:#552222;stroke:#552222;}#mermaid-1645473235446 .edge-thickness-normal{stroke-width:2px;}#mermaid-1645473235446 .edge-thickness-thick{stroke-width:3.5px;}#mermaid-1645473235446 .edge-pattern-solid{stroke-dasharray:0;}#mermaid-1645473235446 .edge-pattern-dashed{stroke-dasharray:3;}#mermaid-1645473235446 .edge-pattern-dotted{stroke-dasharray:2;}#mermaid-1645473235446 .marker{fill:#333333;stroke:#333333;}#mermaid-1645473235446 .marker.cross{stroke:#333333;}#mermaid-1645473235446 svg{font-family:"trebuchet ms",verdana,arial,sans-serif;font-size:16px;}#mermaid-1645473235446 .label{font-family:"trebuchet ms",verdana,arial,sans-serif;color:#333;}#mermaid-1645473235446 .cluster-label text{fill:#333;}#mermaid-1645473235446 .cluster-label span{color:#333;}#mermaid-1645473235446 .label text,#mermaid-1645473235446 span{fill:#333;color:#333;}#mermaid-1645473235446 .node rect,#mermaid-1645473235446 .node circle,#mermaid-1645473235446 .node ellipse,#mermaid-1645473235446 .node polygon,#mermaid-1645473235446 .node path{fill:#ECECFF;stroke:#9370DB;stroke-width:1px;}#mermaid-1645473235446 .node .label{text-align:center;}#mermaid-1645473235446 .node.clickable{cursor:pointer;}#mermaid-1645473235446 .arrowheadPath{fill:#333333;}#mermaid-1645473235446 .edgePath .path{stroke:#333333;stroke-width:2.0px;}#mermaid-1645473235446 .flowchart-link{stroke:#333333;fill:none;}#mermaid-1645473235446 .edgeLabel{background-color:#e8e8e8;text-align:center;}#mermaid-1645473235446 .edgeLabel rect{opacity:0.5;background-color:#e8e8e8;fill:#e8e8e8;}#mermaid-1645473235446 .cluster rect{fill:#ffffde;stroke:#aaaa33;stroke-width:1px;}#mermaid-1645473235446 .cluster text{fill:#333;}#mermaid-1645473235446 .cluster span{color:#333;}#mermaid-1645473235446 div.mermaidTooltip{position:absolute;text-align:center;max-width:200px;padding:2px;font-family:"trebuchet ms",verdana,arial,sans-serif;font-size:12px;background:hsl(80, 100%, 96.2745098039%);border:1px solid #aaaa33;border-radius:2px;pointer-events:none;z-index:100;}#mermaid-1645473235446 :root{--mermaid-font-family:"trebuchet ms",verdana,arial,sans-serif;}</style><g><g class="output"><g class="clusters"></g><g class="edgePaths"><g class="edgePath LS-A LE-B" id="L-A-B" style="opacity: 1;"><path class="path" d="M86.703125,121.27706718444824L98.57682291666667,121.27706718444824C110.45052083333333,121.27706718444824,134.19791666666666,121.27706718444824,158.02864608764648,121.36040051778157C181.85937550862627,121.44373385111491,205.77343851725254,121.61040051778157,217.73047002156568,121.69373385111491L229.68750152587882,121.77706718444823" marker-end="url(#arrowhead24)" style="fill:none"></path><defs><marker id="arrowhead24" viewBox="0 0 10 10" refX="9" refY="5" markerUnits="strokeWidth" markerWidth="8" markerHeight="6" orient="auto"><path d="M 0 0 L 10 5 L 0 10 z" class="arrowheadPath" style="stroke-width: 1; stroke-dasharray: 1, 0;"></path></marker></defs></g><g class="edgePath LS-B LE-C" id="L-B-C" style="opacity: 1;"><path class="path" d="M307.2638391916323,107.53231415195951L318.01947485940065,102.57310632404096C328.7751105271689,97.61389849612242,350.2863818627056,87.69548284028532,369.5068612804739,82.73627501236679C388.7273406982422,77.77706718444824,405.6570281982422,77.77706718444824,414.1218719482422,77.77706718444824L422.5867156982422,77.77706718444824" marker-end="url(#arrowhead25)" style="fill:none"></path><defs><marker id="arrowhead25" viewBox="0 0 10 10" refX="9" refY="5" markerUnits="strokeWidth" markerWidth="8" markerHeight="6" orient="auto"><path d="M 0 0 L 10 5 L 0 10 z" class="arrowheadPath" style="stroke-width: 1; stroke-dasharray: 1, 0;"></path></marker></defs></g><g class="edgePath LS-C LE-D1" id="L-C-D1" style="opacity: 1;"><path class="path" d="M497.2814257907408,59.27706718444824L507.4410314003244,53.81422265370687C517.6006370099079,48.35137812296549,537.919848229075,37.42568906148275,558.8834902969919,32.04617786407471C579.8471323649088,26.666666666666668,601.4552052815756,26.833333333333332,612.2592417399088,26.916666666666668L623.0632781982422,27" marker-end="url(#arrowhead26)" style="fill:none"></path><defs><marker id="arrowhead26" viewBox="0 0 10 10" refX="9" refY="5" markerUnits="strokeWidth" markerWidth="8" markerHeight="6" orient="auto"><path d="M 0 0 L 10 5 L 0 10 z" class="arrowheadPath" style="stroke-width: 1; stroke-dasharray: 1, 0;"></path></marker></defs></g><g class="edgePath LS-C LE-D2" id="L-C-D2" style="opacity: 1;"><path class="path" d="M497.2814257907408,96.27706718444824L507.4410314003244,101.73991171518962C517.6006370099079,107.20275624593098,537.919848229075,118.12844530741374,558.0523275264028,123.5912898381551C578.1848068237305,129.05413436889648,598.1305541992188,129.05413436889648,608.1034278869629,129.05413436889648L618.076301574707,129.05413436889648" marker-end="url(#arrowhead27)" style="fill:none"></path><defs><marker id="arrowhead27" viewBox="0 0 10 10" refX="9" refY="5" markerUnits="strokeWidth" markerWidth="8" markerHeight="6" orient="auto"><path d="M 0 0 L 10 5 L 0 10 z" class="arrowheadPath" style="stroke-width: 1; stroke-dasharray: 1, 0;"></path></marker></defs></g><g class="edgePath LS-B LE-C2" id="L-B-C2" style="opacity: 1;"><path class="path" d="M307.26384129651547,136.0218211638117L318.0194766134699,140.81436216725112C328.7751119304244,145.60690317069054,350.2863825643333,155.1919851775694,369.6552991312877,159.98452618100882C389.0242156982422,164.77706718444824,406.2507781982422,164.77706718444824,414.8640594482422,164.77706718444824L423.4773406982422,164.77706718444824" marker-end="url(#arrowhead28)" style="fill:none"></path><defs><marker id="arrowhead28" viewBox="0 0 10 10" refX="9" refY="5" markerUnits="strokeWidth" markerWidth="8" markerHeight="6" orient="auto"><path d="M 0 0 L 10 5 L 0 10 z" class="arrowheadPath" style="stroke-width: 1; stroke-dasharray: 1, 0;"></path></marker></defs></g></g><g class="edgeLabels"><g class="edgeLabel" transform="translate(157.9453125,121.27706718444824)" style="opacity: 1;"><g transform="translate(-46.2421875,-8.5)" class="label"><rect rx="0" ry="0" width="92.41178131103516" height="17.00101661682129"></rect><text><tspan xml:space="preserve" dy="1em" x="1">Initial Access</tspan></text></g></g><g class="edgeLabel" transform="translate(371.7976531982422,77.77706718444824)" style="opacity: 1;"><g transform="translate(-25.7890625,-8.5)" class="label"><rect rx="0" ry="0" width="51.534332275390625" height="17.00101661682129"></rect><text><tspan xml:space="preserve" dy="1em" x="1">Access</tspan></text></g></g><g class="edgeLabel" transform="translate(558.2390594482422,26.5)" style="opacity: 1;"><g transform="translate(-30.07421875,-8.5)" class="label"><rect rx="0" ry="0" width="60.09821701049805" height="17.00101661682129"></rect><text><tspan xml:space="preserve" dy="1em" x="1">Connect</tspan></text></g></g><g class="edgeLabel" transform="translate(558.2390594482422,129.05413436889648)" style="opacity: 1;"><g transform="translate(-30.07421875,-8.5)" class="label"><rect rx="0" ry="0" width="60.09821701049805" height="17.00101661682129"></rect><text><tspan xml:space="preserve" dy="1em" x="1">Connect</tspan></text></g></g><g class="edgeLabel" transform="translate(371.7976531982422,164.77706718444824)" style="opacity: 1;"><g transform="translate(-25.7890625,-8.5)" class="label"><rect rx="0" ry="0" width="51.534332275390625" height="17.00101661682129"></rect><text><tspan xml:space="preserve" dy="1em" x="1">Access</tspan></text></g></g></g><g class="nodes"><g class="node default" id="flowchart-A-10" transform="translate(47.3515625,121.27706718444824)" style="opacity: 1;"><rect rx="0" ry="0" x="-39.3515625" y="-18.5" width="78.703125" height="37" class="label-container"></rect><g class="label" transform="translate(0,0)"><g transform="translate(-29.3515625,-8.5)"><text style=""><tspan xml:space="preserve" dy="1em" x="1">External</tspan></text></g></g></g><g class="node default" id="flowchart-B-11" transform="translate(275.0980453491211,121.27706718444824)" style="opacity: 1;"><polygon points="45.910546875,0 91.82109375,-45.910546875 45.910546875,-91.82109375 0,-45.910546875" transform="translate(-45.910546875,45.910546875)" class="label-container"></polygon><g class="label" transform="translate(0,0)"><g transform="translate(-22.51171875,-8.5)"><text style=""><tspan xml:space="preserve" dy="1em" x="1">Target</tspan></text></g></g></g><g class="node default" id="flowchart-C-13" transform="translate(462.8757781982422,77.77706718444824)" style="opacity: 1;"><rect rx="0" ry="0" x="-40.2890625" y="-18.5" width="80.578125" height="37" class="label-container"></rect><g class="label" transform="translate(0,0)"><g transform="translate(-30.2890625,-8.5)"><text style=""><tspan xml:space="preserve" dy="1em" x="1">Machine</tspan></text></g></g></g><g class="node default" id="flowchart-D1-15" transform="translate(662.373176574707,26.5)" style="opacity: 1;"><polygon points="-12.333333333333334,0 85.78645833333333,0 67.28645833333333,-37 6.166666666666667,-37" transform="translate(-36.7265625,18.5)" class="label-container"></polygon><g class="label" transform="translate(0,0)"><g transform="translate(-26.7265625,-8.5)"><text style=""><tspan xml:space="preserve" dy="1em" x="1">Service</tspan></text></g></g></g><g class="node default" id="flowchart-D2-17" label-offset-y="10.369422092172641" transform="translate(662.373176574707,129.05413436889648)" style="opacity: 1;"><path d="M 0,10.369422092172641 a 44.296875,10.369422092172641 0,0,0 88.59375 0 a 44.296875,10.369422092172641 0,0,0 -88.59375 0 l 0,47.36942209217264 a 44.296875,10.369422092172641 0,0,0 88.59375 0 l 0,-47.36942209217264" transform="translate(-44.296875,-34.05413313825896)" class="label-container"></path><g class="label" transform="translate(0,0)"><g transform="translate(-34.296875,-8.5)"><text style=""><tspan xml:space="preserve" dy="1em" x="1">Database</tspan></text></g></g></g><g class="node default" id="flowchart-C2-19" transform="translate(462.8757781982422,164.77706718444824)" style="opacity: 1;"><rect rx="0" ry="0" x="-39.3984375" y="-18.5" width="78.796875" height="37" class="label-container"></rect><g class="label" transform="translate(0,0)"><g transform="translate(-29.3984375,-8.5)"><text style=""><tspan xml:space="preserve" dy="1em" x="1">Desktop</tspan></text></g></g></g></g></g></g></svg>